<svg id="Слой_1" data-name="Слой 1" xmlns="http://www.w3.org/2000/svg" viewBox="0 0 364.49 64.62"><defs><style>.cls-1{fill:#ffffff;}.cls-2{fill:#ffffff;}</style></defs><title>logo traced</title><path class="cls-1" d="M294.19,245.63q0-11.66,0-23.32c0-5,2.25-7.35,7.25-7.33,8.72,0,17.45-.05,26.16.26,6.12,0.22,11,3.12,13.66,8.76a14.37,14.37,0,0,1-1.32,15.32,14.14,14.14,0,0,1-4.41,3.81,7.1,7.1,0,0,0-1,.88,8.24,8.24,0,0,0,1.16.72c6.22,2.59,9.9,7.07,10,14s-2.75,12.2-8.87,15.47c-3.79,2-8,2.51-12.25,2.54-7.72,0-15.43,0-23.15,0-4.87,0-7.17-2.29-7.18-7.21C294.18,261.53,294.19,253.58,294.19,245.63Zm22.23,4c-3,0-5.58,0-8.13,0-1,0-1.37.22-1.36,1.27,0,5,0,10.08,0,15.12,0,0.58-.09,1.27.83,1.25,6.43-.18,12.94.63,19.27-1.09a7.66,7.66,0,0,0,5.67-7.53c0.15-4-1.47-6.43-5-7.91C323.88,249.08,319.88,249.78,316.42,249.59Zm-3-24.94c-1.24,0-3.26.06-5.27,0-0.93,0-1.27.19-1.26,1.15,0,4.5,0,9,0,13.51,0,0.7.17,1.11,1,1.1,5.44-.08,10.9.29,16.3-0.68a7.49,7.49,0,0,0,6-7c0.18-4.09-1.14-6-5.05-7.18C321.58,224.4,317.89,224.7,313.46,224.65Z" transform="translate(-81.14 -213.32)"/><path class="cls-2" d="M102.71,214.4c4.66,0.3,10.34-.66,15.9.66,7.59,1.81,12.58,7.61,12.93,14.8,0.43,8.8-3.35,14.48-11.49,17.28l-3.13,1.05c0.46,1.13,1.66,1.42,2.46,2.17a51.19,51.19,0,0,1,12.9,19.74,4.83,4.83,0,0,1-2.25,6.25,6.86,6.86,0,0,1-7.94-.75c-2.33-2.12-3.55-5-5.21-7.58-3.24-5-5.75-10.48-9.89-14.92-3.55-3.8-8.12-3.34-12.61-3.3-1,0-.68,1-0.69,1.54,0,6.29,0,12.59,0,18.88,0,4.44-2.28,7-6.25,7s-6.28-2.5-6.28-6.94q0-24.4,0-48.8c0-4.87,2.2-7,7.08-7.06h14.49Zm-9,17.19c0,2.87,0,5.25,0,7.62,0,0.74,0,1.41,1.08,1.38,5.86-.19,11.75.4,17.56-0.81,4.39-.91,6.51-3.68,6.31-8.28a7.8,7.8,0,0,0-6.95-7.14,71.23,71.23,0,0,0-9.95-.32c-2.6,0-6.1-.93-7.56.38C92.52,225.88,93.89,229.45,93.67,231.59Z" transform="translate(-81.14 -213.32)"/><path class="cls-1" d="M377.33,277.9c-5.93,0-11.89.35-17.38-2.6-8.36-4.5-11.6-11.94-11.58-20.93s3-16.54,11.52-20.93a22.75,22.75,0,0,1,12-2.37c5.08,0.28,10.21-.25,15.28.14a20.89,20.89,0,0,1,19.2,19.38c0.65,7.76-.43,15.08-6.2,20.94-4.76,4.83-10.76,6.43-17.35,6.38C381,277.89,379.17,277.9,377.33,277.9Zm0.09-9.3c2.2,0,4.4-.12,6.58,0,4.25,0.29,7.06-1.85,8.82-5.37a20.23,20.23,0,0,0,.81-16.07c-1.85-5.38-5-7.37-10.58-7.37-4,0-8,.07-11.93,0-4.21-.09-7.1,1.85-9,5.49-2.33,4.55-2.45,9.41-1.34,14.21,1.59,6.87,4.68,9.11,11.61,9.11h5Z" transform="translate(-81.14 -213.32)"/><path class="cls-2" d="M288.27,254.52c-0.21,5.59-.1,11.13,1.85,16.5,0.8,2.2-.3,3.94-2.11,5.18a4.89,4.89,0,0,1-5.67.33,12.76,12.76,0,0,1-4-4.45c-0.64-1-1.1-1-2-.34-6,4.47-12.51,6.58-20,5-5.54-1.19-10.09-6.12-10.3-11.25-0.27-6.8,3.14-11.84,9.44-13.44s12.56-2.94,18.86-4.32c1.74-.38,2.49-0.89,2.13-3-1-6-4.89-6.73-11.93-5.83-3.11.39-5.14,2.42-6.81,5-0.87,1.33-1.41,3.09-3.37,3.4-2.11.33-4,.07-5.46-1.73-1.61-2-1-4.19-.14-6.23,2.05-4.75,6.22-6.91,10.88-8a40.13,40.13,0,0,1,18.34,0c6.74,1.5,10.19,6.7,10.31,15.25C288.31,249.18,288.27,251.85,288.27,254.52Zm-23.2,14.78c7.82,0,13-6.32,11.67-14.06-0.17-1-.66-0.73-1.24-0.59-4.14,1-8.28,1.95-12.41,3a6.82,6.82,0,0,0-4.71,3.17C256.15,265,259.56,269.31,265.08,269.3Z" transform="translate(-81.14 -213.32)"/><path class="cls-2" d="M157,256.79c-3.21,0-6.41.06-9.62,0-1.29,0-1.61.4-1.55,1.63a11.37,11.37,0,0,0,17.33,9.23,31.66,31.66,0,0,0,6.21-5,4.45,4.45,0,0,1,6-.77c2.15,1.32,1.86,3.52,1,5.42-2.35,5.46-7.13,8.05-12.52,9.24-7.3,1.6-14.58,1.24-21-3.08s-9.1-11-9.24-18.63c-0.17-9.27,2.4-17.39,11.25-21.92,10.15-5.19,26.43-3.37,31.45,10a17.59,17.59,0,0,1,1.18,8.51c-0.42,3.38-2.62,4.62-5.54,5C167,257,162,256.78,157,256.79ZM156,250c2.9,0,5.8,0,8.71,0,1.07,0,1.48-.25,1.4-1.38-0.38-5.68-4.44-10-9.53-10.07-5.92-.07-10.12,3.84-10.66,9.87-0.1,1.11.1,1.62,1.37,1.58C150.16,250,153.07,250,156,250Z" transform="translate(-81.14 -213.32)"/><path class="cls-2" d="M207.17,230.35a18.91,18.91,0,0,1,15.24,9.6c2.38,4,.79,7.86-3.32,8.75-2.34.51-3.83-.7-5.13-2.4-2-2.58-3.72-5.45-7.09-6.45-5.85-1.73-11,.7-13.26,6.41a19.74,19.74,0,0,0,.15,15.4,9.7,9.7,0,0,0,8.12,6.36c4.58,0.54,8.28-.94,10.87-4.87,0.62-.94,1.16-1.93,1.82-2.84,2-2.7,4.27-3.41,6.73-2.11a5.73,5.73,0,0,1,2.41,6.94c-2.26,6.5-7.34,9.79-13.65,11.14-8.17,1.75-16.18,1.36-22.78-4.58-6.29-5.65-7.63-13.18-6.73-21.15C182,237.63,190.4,230.35,207.17,230.35Z" transform="translate(-81.14 -213.32)"/><path class="cls-1" d="M440.38,277.93a5.66,5.66,0,0,1-5-2.71q-4.59-6.33-9-12.81c-0.78-1.15-1.14-1-1.83,0-2.91,4.18-5.84,8.35-8.85,12.47-1.16,1.59-2.56,2.92-4.8,2.93-4.67,0-7.11-3.65-4.65-7.62,3.17-5.13,6.71-10,10.22-15,1.05-1.47,1.25-2.46,0-4-2.91-3.66-5.62-7.49-8.35-11.29-2.37-3.3-2.37-6.16-.11-7.94,2.54-2,6.2-1.44,8.59,1.58,2.75,3.49,5.33,7.11,7.92,10.72,0.73,1,1.11,1.1,1.87,0,2.35-3.42,4.75-6.8,7.24-10.11,1.32-1.76,2.79-3.36,5.36-3.3,2.13,0,3.89.68,5,2.53a4.59,4.59,0,0,1-.48,5.19q-4.78,6.74-9.73,13.36a1.73,1.73,0,0,0,0,2.46c3.4,4.78,6.79,9.57,10.06,14.43,2.79,4.14,2.23,7.17-1.42,8.6A12.46,12.46,0,0,1,440.38,277.93Z" transform="translate(-81.14 -213.32)"/><path class="cls-2" d="M241.17,245.35q0,12.47,0,24.94c0,4.43-2.14,6.93-5.85,6.92s-5.84-2.64-5.84-7q0-25,0-50.05c0-4.54,2.1-6.87,6.06-6.84,3.49,0,5.61,2.45,5.63,6.56C241.19,228.37,241.17,236.86,241.17,245.35Z" transform="translate(-81.14 -213.32)"/><path class="cls-2" d="M384,263c-4.35-1.16-8.53-.44-12.67.75a1.21,1.21,0,0,1-1.61-.71,1.15,1.15,0,0,1,.65-1.48,21.27,21.27,0,0,1,14.08-2.41,1.75,1.75,0,0,1,1.54,2.22A2,2,0,0,1,384,263Z" transform="translate(-81.14 -213.32)"/><path class="cls-2" d="M368.44,251.92c-1.87-.31-3.12-1.37-3.14-3.27a3.15,3.15,0,1,1,6.3,0C371.58,250.56,370.29,251.57,368.44,251.92Z" transform="translate(-81.14 -213.32)"/><path class="cls-2" d="M388.69,248.54c-0.29,2-1.26,3.29-3.2,3.26a3.14,3.14,0,1,1,.12-6.28C387.47,245.54,388.4,246.84,388.69,248.54Z" transform="translate(-81.14 -213.32)"/></svg>
