<?xml version="1.0" encoding="utf-8"?>
<!-- Generator: Adobe Illustrator 19.2.0, SVG Export Plug-In . SVG Version: 6.00 Build 0)  -->
<svg version="1.1" id="Layer_1" xmlns="http://www.w3.org/2000/svg" xmlns:xlink="http://www.w3.org/1999/xlink" x="0px" y="0px"
	 viewBox="0 0 24 24" style="enable-background:new 0 0 24 24;" xml:space="preserve">
<path style="fill:#ffffff;" d="M19.5,14.6c1.5,1.4,1.9,2.1,1.9,2.2c0.6,1.1-0.7,1.1-0.7,1.1l-2.6,0c0,0-0.6,0.1-1.3-0.4c-1-0.7-1.9-2.4-2.6-2.2
	c-0.7,0.2-0.7,1.8-0.7,1.8s0,0.2-0.2,0.4c-0.2,0.2-0.5,0.1-0.5,0.1h-1.2c0,0-2.6,0.3-4.8-2.1c-2.4-2.5-4.6-7.5-4.6-7.5
	s-0.1-0.3,0-0.5C2.5,7.5,3,7.5,3,7.5h2.8c0,0,0.3,0,0.4,0.2C6.3,7.8,6.4,8,6.4,8s0.4,1.1,1,2.1c1.2,2,1.7,2.4,2.1,2.2
	c0.6-0.3,0.4-2.8,0.4-2.8s0-0.9-0.3-1.3C9.4,7.9,9,7.8,8.8,7.8c-0.2,0,0.1-0.4,0.4-0.6C9.7,7,10.6,7,11.6,7c0.8,0,1,0.1,1.4,0.1
	c1,0.2,0.6,1.1,0.6,3.2c0,0.7-0.1,1.6,0.4,2c0.2,0.1,0.7,0,2-2.2c0.6-1,1.1-2.3,1.1-2.3s0.1-0.2,0.2-0.3c0.2-0.1,0.4-0.1,0.4-0.1
	h2.9c0,0,0.9-0.1,1,0.3c0.1,0.4-0.3,1.4-1.5,2.9C18.1,13.3,17.9,13.1,19.5,14.6z"/>
</svg>
