<?xml version="1.0" encoding="utf-8"?>
<!-- Generator: Adobe Illustrator 19.2.0, SVG Export Plug-In . SVG Version: 6.00 Build 0)  -->
<svg version="1.1" id="Layer_1" xmlns="http://www.w3.org/2000/svg" xmlns:xlink="http://www.w3.org/1999/xlink" x="0px" y="0px"
	 viewBox="0 0 24 24" style="enable-background:new 0 0 24 24;" xml:space="preserve">
<path style="fill:#ffffff;" d="M16.8,14c0.2,0.1,0.4,0.2,0.5,0.3c0.1,0.1,0,0.6-0.2,1.2c-0.2,0.6-1.2,1.1-1.7,1.1c-0.5,0-0.5,0.4-3-0.7s-4-3.8-4.1-3.9
	c-0.1-0.2-1-1.4-0.9-2.6c0.1-1.2,0.7-1.8,1-2C8.5,7,8.8,7,8.9,7h0.5C9.6,7,9.8,6.9,10,7.4l0.7,1.9c0.1,0.1,0.1,0.3,0,0.4l-0.3,0.4
	L10,10.6c-0.1,0.1-0.3,0.2-0.1,0.5c0.1,0.3,0.6,1.1,1.3,1.8c0.9,0.9,1.7,1.2,1.9,1.3c0.2,0.1,0.4,0.1,0.5,0l0.8-0.9
	c0.2-0.2,0.4-0.2,0.6-0.1L16.8,14 M12,2c5.5,0,10,4.5,10,10s-4.5,10-10,10c-2,0-3.8-0.6-5.3-1.5L2,22l1.5-4.6C2.6,15.8,2,14,2,12
	C2,6.5,6.5,2,12,2 M12,4c-4.4,0-8,3.6-8,8c0,1.7,0.5,3.3,1.5,4.6l-1,2.9l2.9-1C8.7,19.5,10.3,20,12,20c4.4,0,8-3.6,8-8S16.4,4,12,4z
	"/>
</svg>
